<?xml version="1.0" encoding="utf-8"?>
<!-- Generator: Adobe Illustrator 16.0.0, SVG Export Plug-In . SVG Version: 6.00 Build 0)  -->
<!DOCTYPE svg PUBLIC "-//W3C//DTD SVG 1.1//EN" "http://www.w3.org/Graphics/SVG/1.1/DTD/svg11.dtd">
<svg version="1.1" id="Layer_1" xmlns="http://www.w3.org/2000/svg" xmlns:xlink="http://www.w3.org/1999/xlink" x="0px" y="0px"
	 width="50px" height="50px" viewBox="0 0 50 50" enable-background="new 0 0 50 50" xml:space="preserve">
<path id="Blue_1_" fill="#3D5A98" d="M48.423,51.322c1.604,0,2.905-1.301,2.905-2.905V1.584c0-1.605-1.301-2.906-2.905-2.906
	c0,0-35.125,0-46.833,0c-1.605,0-2.905,1.301-2.905,2.906v46.833c0,1.604,1.3,2.905,2.905,2.905H48.423z"/>
<path id="f" fill="#FFFFFF" d="M26.682,35.819v-9.871h3.313l0.496-3.846h-3.81v-2.456c0-1.114,0.31-1.873,1.906-1.873l2.037-0.001
	v-3.439c-0.352-0.047-1.562-0.152-2.968-0.152c-2.937,0-4.948,1.793-4.948,5.085v2.837h-3.321v3.846h3.321v9.871H26.682z"/>
</svg>
