<?xml version="1.0" encoding="utf-8"?>
<!-- Generator: Adobe Illustrator 16.0.0, SVG Export Plug-In . SVG Version: 6.00 Build 0)  -->
<!DOCTYPE svg PUBLIC "-//W3C//DTD SVG 1.1//EN" "http://www.w3.org/Graphics/SVG/1.1/DTD/svg11.dtd">
<svg version="1.1" id="Layer_1" xmlns="http://www.w3.org/2000/svg" xmlns:xlink="http://www.w3.org/1999/xlink" x="0px" y="0px"
	 width="50px" height="50px" viewBox="0 0 50 50" enable-background="new 0 0 50 50" xml:space="preserve">
<rect width="50" height="50"/>
<g>
	<path fill="#FFFFFF" d="M25,15.504c3.093,0,3.459,0.012,4.681,0.067c1.129,0.052,1.743,0.241,2.15,0.399
		c0.541,0.21,0.927,0.461,1.333,0.867c0.404,0.405,0.656,0.791,0.866,1.332c0.158,0.408,0.347,1.021,0.397,2.151
		c0.057,1.222,0.068,1.588,0.068,4.68c0,3.093-0.012,3.459-0.068,4.681c-0.051,1.129-0.239,1.743-0.397,2.15
		c-0.21,0.541-0.462,0.927-0.866,1.333c-0.406,0.404-0.792,0.656-1.333,0.866c-0.407,0.158-1.021,0.347-2.15,0.397
		c-1.222,0.057-1.588,0.068-4.681,0.068s-3.458-0.012-4.68-0.068c-1.129-0.051-1.743-0.239-2.151-0.397
		c-0.541-0.21-0.926-0.462-1.332-0.866c-0.406-0.406-0.656-0.792-0.867-1.333c-0.158-0.407-0.347-1.021-0.399-2.15
		c-0.056-1.222-0.067-1.588-0.067-4.681c0-3.092,0.012-3.458,0.067-4.68c0.052-1.129,0.241-1.743,0.399-2.151
		c0.21-0.541,0.461-0.926,0.867-1.332c0.405-0.406,0.791-0.656,1.332-0.867c0.408-0.158,1.021-0.347,2.151-0.399
		C21.542,15.516,21.908,15.504,25,15.504 M25,13.417c-3.146,0-3.54,0.013-4.775,0.07c-1.232,0.056-2.075,0.252-2.812,0.538
		c-0.762,0.296-1.408,0.692-2.051,1.336c-0.645,0.644-1.04,1.29-1.336,2.051c-0.286,0.737-0.482,1.579-0.538,2.812
		c-0.057,1.235-0.07,1.63-0.07,4.775c0,3.146,0.013,3.54,0.07,4.776c0.056,1.232,0.252,2.074,0.538,2.811
		c0.296,0.763,0.692,1.408,1.336,2.052c0.644,0.644,1.29,1.041,2.051,1.336c0.737,0.287,1.579,0.481,2.812,0.539
		c1.235,0.056,1.63,0.069,4.775,0.069c3.146,0,3.54-0.014,4.776-0.069c1.232-0.058,2.074-0.252,2.811-0.539
		c0.763-0.295,1.408-0.692,2.052-1.336s1.041-1.289,1.336-2.052c0.287-0.736,0.481-1.578,0.539-2.811
		c0.056-1.236,0.069-1.63,0.069-4.776c0-3.146-0.014-3.54-0.069-4.775c-0.058-1.232-0.252-2.075-0.539-2.812
		c-0.295-0.762-0.692-1.408-1.336-2.051c-0.644-0.645-1.289-1.04-2.052-1.336c-0.736-0.286-1.578-0.482-2.811-0.538
		C28.54,13.431,28.146,13.417,25,13.417L25,13.417z"/>
	<path fill="#FFFFFF" d="M25,19.052c-3.285,0-5.948,2.663-5.948,5.948c0,3.285,2.663,5.948,5.948,5.948
		c3.285,0,5.948-2.663,5.948-5.948C30.948,21.715,28.285,19.052,25,19.052z M25,28.861c-2.132,0-3.861-1.729-3.861-3.861
		c0-2.132,1.729-3.861,3.861-3.861c2.133,0,3.861,1.729,3.861,3.861C28.861,27.133,27.133,28.861,25,28.861z"/>
	<circle fill="#FFFFFF" cx="31.183" cy="18.817" r="1.39"/>
</g>
</svg>
