<?xml version="1.0" encoding="utf-8"?>
<!-- Generator: Adobe Illustrator 16.0.0, SVG Export Plug-In . SVG Version: 6.00 Build 0)  -->
<!DOCTYPE svg PUBLIC "-//W3C//DTD SVG 1.1//EN" "http://www.w3.org/Graphics/SVG/1.1/DTD/svg11.dtd">
<svg version="1.1" id="Layer_1" xmlns="http://www.w3.org/2000/svg" xmlns:xlink="http://www.w3.org/1999/xlink" x="0px" y="0px"
	 width="50px" height="50px" viewBox="0 0 50 50" enable-background="new 0 0 50 50" xml:space="preserve">
<rect fill="#1DA1F2" width="50" height="50"/>
<g id="Logo__x2014__FIXED">
	<g>
		<path fill="#FFFFFF" d="M20.618,34.6c8.91,0,13.785-7.389,13.785-13.785c0-0.208,0-0.416-0.009-0.624
			c0.944-0.681,1.767-1.54,2.419-2.514c-0.87,0.388-1.805,0.643-2.788,0.766c1.002-0.595,1.768-1.55,2.136-2.684
			c-0.935,0.558-1.975,0.955-3.08,1.172c-0.888-0.945-2.146-1.531-3.533-1.531c-2.675,0-4.848,2.173-4.848,4.847
			c0,0.378,0.047,0.747,0.123,1.105c-4.025-0.198-7.597-2.135-9.987-5.064c-0.416,0.718-0.652,1.549-0.652,2.438
			c0,1.681,0.86,3.165,2.154,4.034c-0.794-0.028-1.54-0.246-2.192-0.605c0,0.019,0,0.038,0,0.066c0,2.343,1.672,4.309,3.883,4.752
			c-0.406,0.113-0.832,0.171-1.275,0.171c-0.312,0-0.614-0.029-0.907-0.086c0.614,1.928,2.409,3.326,4.525,3.363
			c-1.663,1.305-3.751,2.079-6.019,2.079c-0.387,0-0.774-0.019-1.152-0.065C15.335,33.797,17.887,34.6,20.618,34.6"/>
	</g>
</g>
</svg>
