<?xml version="1.0" encoding="utf-8"?>
<!-- Generator: Adobe Illustrator 16.0.0, SVG Export Plug-In . SVG Version: 6.00 Build 0)  -->
<!DOCTYPE svg PUBLIC "-//W3C//DTD SVG 1.1//EN" "http://www.w3.org/Graphics/SVG/1.1/DTD/svg11.dtd">
<svg version="1.1" id="Layer_1" xmlns="http://www.w3.org/2000/svg" xmlns:xlink="http://www.w3.org/1999/xlink" x="0px" y="0px"
	 width="195px" height="195px" viewBox="0 0 195 195" enable-background="new 0 0 195 195" xml:space="preserve">
<title>Monogram</title>
<desc>Created with Sketch.</desc>
<g id="Page-1">
	<g id="Monogram">
		<rect id="Rectangle-path" fill="#12100E" width="195" height="195"/>
		<path id="Shape" fill="#FFFFFF" d="M59.503,73.206c0.12-1.191-0.334-2.368-1.223-3.169l-9.058-10.911v-1.63h28.122l21.736,47.672
			l19.11-47.672H145v1.63l-7.744,7.424c-0.668,0.509-0.998,1.346-0.86,2.173v54.554c-0.138,0.827,0.192,1.662,0.86,2.173
			l7.563,7.423v1.631H106.78v-1.631l7.833-7.604c0.771-0.77,0.771-0.997,0.771-2.175V79l-21.782,55.323h-2.944L65.298,79v37.078
			c-0.211,1.559,0.307,3.129,1.404,4.257l10.189,12.357v1.631H48v-1.631l10.189-12.357c1.089-1.132,1.578-2.71,1.314-4.257V73.206z"
			/>
	</g>
</g>
</svg>
